<svg version="1.1" xmlns="http://www.w3.org/2000/svg" xmlns:xlink="http://www.w3.org/1999/xlink" width="1042" height="610"><desc>title%20Automated%20Retrieval%20of%20Commercial%20Satellite%20Provider%20Data%20Products%0A%0Aparticipant%20%22MQTT%20Clients%20Authorized%20%5Cnto%20Make%20Tasking%20Requests%22%20as%20participantMultilineClients%0A%0Aboundary%20%23red%20%22%3Ccolor%3A%23red%3EFirewall%22%20as%20boundaryFirewall%0A%0Alifelinestyle%20boundaryFirewall%20%23red%3A3.5%3Asolid%0A%0Aentity%20%23teal%20%22%3Ccolor%3A%23teal%3ENOS-T%20%5CnMessage%20%5CnBroker%22%20as%20entityMultilineNOST%0A%0Alifelinestyle%20entityMultilineNOST%20%23teal%3A2.5%3Adashed%0A%0Aparticipant%20%22MQTT%20Client%20%5CnMonitoring%20%5CnFile-Sharing%20%5CnEndpoint%22%20as%20participantMultilineMonitor%0A%0Adatabase%20%23blue%20%22%3Ccolor%3A%23blue%3EFile-Sharing%20%5CnEndpoint%22%20as%20databaseMultiline%0A%0Alifelinestyle%20databaseMultiline%20%23blue%3A2.5%3Adashed%0A%0Aparticipant%20%22Commercial%20Satellite%5CnProvider%20API%22%20as%20participantMultilineAPI%0A%0AparticipantMultilineClients--%3EentityMultilineNOST%3A%3Calign%3Acenter%3E%20Subscribe%20to%20Topic%20%5Cn(wait%20for%20message%20from%20Monitor%20Client)%0A%0AparticipantMultilineMonitor--%3E%3EdatabaseMultiline%3A%3Calign%3Acenter%3EContinuously%20%5CnMonitoring%20%5Cnfor%20Activity%0A%20%0Aaboxleft%20left%20of%20participantMultilineAPI%3A%3Calign%3Acenter%3EDelivery%20of%20%5CnData%20Product(s)%0A%0Alinear%20%0AparticipantMultilineMonitor%3C-databaseMultiline%3A%3Calign%3Acenter%3E%20File%20Detected%20%5Cn(or%20empty%20EOT.txt%20file)%0A%0AentityMultilineNOST%20%3C-participantMultilineMonitor%3A%3Calign%3Acenter%3E%20**Message%20Payload%3A**%20%5Cnfilename%20and%20%5Cnhttps%20endpoint%0A%0AparticipantMultilineClients%3C-entityMultilineNOST%3A%3Calign%3Acenter%3E%20**Broker%20Routes%20to%20Subscribers%3A**%20%5CnRelays%20message%20payload%20across%20Firewall%0A%0AparticipantMultilineClients%20--%3EdatabaseMultiline%3A%3Calign%3Acenter%3E%20File%20Get%20Request%0A%0Aaboxleft%20over%20participantMultilineClients%2CdatabaseMultiline%3A%3Calign%3Acenter%3E%20Delivery%20of%20Data%20Product(s)%20across%20Firewall%0A</desc><defs/><g><g/><g/><g/><g/><g/><g/><g/><g/><g/><g/><g/><g/><g/><g/><g/><g/><g/><g/><g/><g/><g/><g/><g/><g/><g/><g/><g/><g/><g/><g/><g/><g/><g/><g/><g><rect fill="white" stroke="none" x="0" y="0" width="1042" height="610"/></g><g><text fill="black" stroke="none" font-family="sans-serif" font-size="16.5pt" font-style="normal" font-weight="normal" text-decoration="normal" x="188.90870235845898" y="24.50280495" text-anchor="start" dominant-baseline="alphabetic" xml:space="preserve">Automated Retrieval of Commercial Satellite Provider Data Products</text></g><g/><g><path fill="none" stroke="black" paint-order="fill stroke markers" d=" M 111.8576287124336 156.4259068008 L 111.8576287124336 610.5445585408" stroke-miterlimit="10" stroke-width="1.3612669416666667" stroke-dasharray="12.565541,5.445067766666667"/><path fill="none" stroke="red" paint-order="fill stroke markers" d=" M 266.44743957402216 156.4259068008 L 266.44743957402216 610.5445585408" stroke-miterlimit="10" stroke-width="4.764434295833333"/><path fill="none" stroke="teal" paint-order="fill stroke markers" d=" M 421.0372504356107 156.4259068008 L 421.0372504356107 610.5445585408" stroke-miterlimit="10" stroke-width="3.403167354166667" stroke-dasharray="12.565541,5.445067766666667"/><path fill="none" stroke="black" paint-order="fill stroke markers" d=" M 599.8518971832018 156.4259068008 L 599.8518971832018 610.5445585408" stroke-miterlimit="10" stroke-width="1.3612669416666667" stroke-dasharray="12.565541,5.445067766666667"/><path fill="none" stroke="blue" paint-order="fill stroke markers" d=" M 785.1518344581367 156.4259068008 L 785.1518344581367 610.5445585408" stroke-miterlimit="10" stroke-width="3.403167354166667" stroke-dasharray="12.565541,5.445067766666667"/><path fill="none" stroke="black" paint-order="fill stroke markers" d=" M 949.8812466465743 156.4259068008 L 949.8812466465743 610.5445585408" stroke-miterlimit="10" stroke-width="1.3612669416666667" stroke-dasharray="12.565541,5.445067766666667"/></g><g><path fill="none" stroke="none"/><g><path fill="white" stroke="black" paint-order="fill stroke markers" d=" M 8.167601649999995 96.1490066238 L 215.5476557748672 96.1490066238 L 215.5476557748672 156.4259068008 L 8.167601649999995 156.4259068008 L 8.167601649999995 96.1490066238 Z" stroke-miterlimit="10" stroke-width="2.613632528" stroke-dasharray=""/></g><g><text fill="black" stroke="none" font-family="sans-serif" font-size="11pt" font-style="normal" font-weight="normal" text-decoration="normal" x="27.537674793976564" y="123.7555002008" text-anchor="start" dominant-baseline="alphabetic" xml:space="preserve">MQTT Clients Authorized </text><text fill="black" stroke="none" font-family="sans-serif" font-size="11pt" font-style="normal" font-weight="normal" text-decoration="normal" x="25.8912972305" y="140.0907035008" text-anchor="start" dominant-baseline="alphabetic" xml:space="preserve">to Make Tasking Requests</text></g><g><path fill="white" stroke="red" paint-order="fill stroke markers" d=" M 298.87281812452215 109.5438733298 A 24.2577769005 24.2577769005 0 1 1 298.87280599563474 109.51961555694244 M 235.41055330402216 83.89760414879999 L 235.41055330402216 135.1901425108 M 234.02206102352216 109.5438733298 L 250.35726432352214 109.5438733298" stroke-miterlimit="10" stroke-width="2.7769845610000004" stroke-dasharray=""/></g><g><text fill="red" stroke="none" font-family="sans-serif" font-size="11pt" font-style="normal" font-weight="normal" text-decoration="normal" x="241.1969131457995" y="151.5253458108" text-anchor="start" dominant-baseline="alphabetic" xml:space="preserve">Firewall</text></g><g><path fill="white" stroke="teal" paint-order="fill stroke markers" d=" M 445.2950273361107 74.65187908099999 A 24.2577769005 24.2577769005 0 1 1 445.2950152072233 74.62762130814244 M 395.3909812546107 101.13124363029999 L 446.6835196166107 101.13124363029999" stroke-miterlimit="10" stroke-width="2.7769845610000004" stroke-dasharray=""/></g><g><text fill="teal" stroke="none" font-family="sans-serif" font-size="11pt" font-style="normal" font-weight="normal" text-decoration="normal" x="396.1983069541654" y="118.8549392108" text-anchor="start" dominant-baseline="alphabetic" xml:space="preserve">NOS-T </text><text fill="teal" stroke="none" font-family="sans-serif" font-size="11pt" font-style="normal" font-weight="normal" text-decoration="normal" x="389.25844947125523" y="135.1901425108" text-anchor="start" dominant-baseline="alphabetic" xml:space="preserve">Message </text><text fill="teal" stroke="none" font-family="sans-serif" font-size="11pt" font-style="normal" font-weight="normal" text-decoration="normal" x="399.44814673688023" y="151.5253458108" text-anchor="start" dominant-baseline="alphabetic" xml:space="preserve">Broker</text></g><path fill="none" stroke="none"/><g><path fill="white" stroke="black" paint-order="fill stroke markers" d=" M 538.5526782262369 63.47860002379999 L 661.1511161401667 63.47860002379999 L 661.1511161401667 156.4259068008 L 538.5526782262369 156.4259068008 L 538.5526782262369 63.47860002379999 Z" stroke-miterlimit="10" stroke-width="2.613632528" stroke-dasharray=""/></g><g><text fill="black" stroke="none" font-family="sans-serif" font-size="11pt" font-style="normal" font-weight="normal" text-decoration="normal" x="556.276373806737" y="91.08509360080001" text-anchor="start" dominant-baseline="alphabetic" xml:space="preserve">MQTT Client </text><text fill="black" stroke="none" font-family="sans-serif" font-size="11pt" font-style="normal" font-weight="normal" text-decoration="normal" x="563.5920705230455" y="107.42029690080001" text-anchor="start" dominant-baseline="alphabetic" xml:space="preserve">Monitoring </text><text fill="black" stroke="none" font-family="sans-serif" font-size="11pt" font-style="normal" font-weight="normal" text-decoration="normal" x="558.298590603612" y="123.75550020080001" text-anchor="start" dominant-baseline="alphabetic" xml:space="preserve">File-Sharing </text><text fill="black" stroke="none" font-family="sans-serif" font-size="11pt" font-style="normal" font-weight="normal" text-decoration="normal" x="570.9149007232409" y="140.0907035008" text-anchor="start" dominant-baseline="alphabetic" xml:space="preserve">Endpoint</text></g><g><path fill="white" stroke="blue" paint-order="fill stroke markers" d=" M 761.3024376401368 108.07370503279998 L 761.3024376401368 73.76977810279999 L 809.0012312761367 73.76977810279999 L 809.0012312761367 108.07370503279998" stroke-miterlimit="10" stroke-width="2.7769845610000004" stroke-dasharray=""/><path fill="white" stroke="blue" paint-order="fill stroke markers" d=" M 809.0012312761367 72.57730826189999 L 809.000038816233 72.6851188068166 L 808.9964615557669 72.79291857076858 L 808.9904998524617 72.90069677386934 L 808.9821543024823 73.00844263838839 L 808.9714257403771 73.11614538982907 L 808.9583152389932 73.223794258006 L 808.94282410937 73.33137847812203 L 808.9249539006074 73.43888729184484 L 808.9047063997114 73.54630994838264 L 808.8820836314152 73.65363570555928 L 808.8570878579768 73.76085383088851 L 808.8297215789528 73.8679536026471 L 808.7999875309482 73.97492431094717 L 808.7678886873431 74.08175525880701 L 808.733428257995 74.18843576322085 L 808.6966096889182 74.29495515622716 L 808.6574366619388 74.40130278597542 L 808.6159130943271 74.50746801779124 L 808.5720431384051 74.61344023523995 L 808.5258311811317 74.71920884118809 L 808.4772818436644 74.82476325886321 L 808.4263999808963 74.9300929329115 L 808.3731906809714 75.03518733045335 L 808.3176592647752 75.14003594213658 L 808.2598112854032 75.24462828318737 L 808.199652527605 75.34895389445879 L 808.1371890072064 75.45300234347665 L 808.0724269705072 75.55676322548277 L 808.0053728936572 75.66022616447539 L 807.9360334820083 75.76338081424684 L 807.8644156694436 75.86621685941812 L 807.7905266176849 75.96872401647039 L 807.7143737155759 76.07089203477337 L 807.6359645783431 76.17271069761037 L 807.555307046835 76.27416982319997 L 807.4724091867375 76.37525926571413 L 807.3872792877677 76.47596891629287 L 807.2999258628442 76.57628870405505 L 807.2103576472371 76.67620859710547 L 807.118583597693 76.77571860353811 L 807.0246128915405 76.87480877243526 L 806.928454925772 76.97346919486259 L 806.830119316104 77.07169000486009 L 806.729615896015 77.16946138042859 L 806.626954715764 77.266773544512 L 806.5221460413829 77.36361676597505 L 806.415200353652 77.45998136057626 L 806.3061283470511 77.55585769193648 L 806.1949409286898 77.65123617250248 L 806.0816492172172 77.74610726450568 L 805.9662645417103 77.84046148091593 L 805.8487984405402 77.93428938639023 L 805.7292626602193 78.02758159821622 L 805.6076691542261 78.12032878725046 L 805.4840300818097 78.21252167885132 L 805.3583578067743 78.30415105380649 L 805.2306648962428 78.39520774925482 L 805.1009641193998 78.48568265960265 L 804.9692684462149 78.57556673743433 L 804.8355910461456 78.664850994417 L 804.6999452868207 78.75352650219935 L 804.5623447327029 78.8415843933045 L 804.422803143733 78.92901586201673 L 804.2813344739536 79.015812165262 L 804.1379528701138 79.10196462348236 L 803.9926726702547 79.18746462150374 L 803.8455084022748 79.27230360939761 L 803.6964747824787 79.35647310333587 L 803.5455867141038 79.43996468643928 L 803.3928592858315 79.5227700096191 L 803.2383077702773 79.604880792412 L 803.0819476224638 79.68628882380816 L 802.9237944782755 79.76698596307224 L 802.7638641528952 79.84696414055759 L 802.602172639222 79.9262153585131 L 802.4387361062727 80.00473169188302 L 802.2735708975641 80.08250528909943 L 802.1066935294798 80.15952837286744 L 801.9381206896173 80.23579324094285 L 801.7678692351202 80.3112922669024 L 801.5959561909921 80.38601790090641 L 801.422398748394 80.45996267045376 L 801.2472142629257 80.53311918112912 L 801.0704202528897 80.60548011734237 L 800.8920343975396 80.6770382430602 L 800.7120745353124 80.74778640252967 L 800.5305586620443 80.81771752099377 L 800.3475049291714 80.88682460539896 L 800.1629316419144 80.95510074509437 L 799.9768572574482 81.02253911252294 L 799.7893003830562 81.08913296390409 L 799.6002797742696 81.15487563990823 L 799.4098143329917 81.2197605663225 L 799.2179231056078 81.28378125470836 L 799.0246252810811 81.34693130305031 L 798.8299401890325 81.40920439639613 L 798.6338872978093 81.4705943074884 L 798.4364862125371 81.53109489738715 L 798.2377566731601 81.59070011608382 L 798.0377185524663 81.6494040031062 L 797.8363918541014 81.70720068811453 L 797.6337967105674 81.76408439148844 L 797.4299533812095 81.82004942490501 L 797.2248822501913 81.87509019190755 L 797.0186038244545 81.92920118846521 L 796.8111387316702 81.98237700352342 L 796.6025077181745 82.03461231954502 L 796.3927316468951 82.08590191304191 L 796.1818314952641 82.13624065509748 L 795.969828353121 82.18562351187948 L 795.7567434206034 82.2340455451434 L 795.542598006027 82.28150191272624 L 795.3274135237547 82.32798786903079 L 795.1112114920554 82.37349876550019 L 794.8940135309523 82.41803005108267 L 794.6758413600603 82.46157727268681 L 794.4567167964148 82.50413607562675 L 794.2366617522894 82.54570220405763 L 794.0156982330053 82.58627150140127 L 793.7938483347303 82.62583991076173 L 793.5711342422693 82.66440347533106 L 793.3475782268458 82.70195833878492 L 793.1232026438754 82.73850074566828 L 792.8980299307291 82.77402704177089 L 792.6720826044907 82.80853367449275 L 792.4453832597045 82.84201719319935 L 792.2179545661161 82.87447424956672 L 791.9898192664052 82.90590159791626 L 791.761000173912 82.93629609553932 L 791.5315201703546 82.9656547030115 L 791.3014022035426 82.99397448449648 L 791.0706692850805 83.02125260803972 L 790.8393444880681 83.04748634585161 L 790.6074509447923 83.07267307458024 L 790.3750118444142 83.09681027557369 L 790.1420504306501 83.119895535132 L 789.9085899994471 83.14192654474846 L 789.6746538966541 83.16290110134044 L 789.4402655156862 83.18281710746977 L 789.2054482951862 83.20167257155245 L 788.9702257166806 83.21946560805776 L 788.734621302231 83.2361944376969 L 788.4986586120826 83.25185738760084 L 788.262361242308 83.26645289148762 L 788.025752822447 83.27997948981904 L 787.7888570131444 83.29243582994654 L 787.5516975037839 83.30382066624647 L 787.3142980101187 83.3141328602447 L 787.0766822719003 83.3233713807304 L 786.8388740505046 83.33153530385927 L 786.6008971265555 83.33862381324576 L 786.3627752975472 83.34463620004485 L 786.124532375464 83.34957186302286 L 785.8861921843996 83.35343030861762 L 785.6477785581747 83.35621115098778 L 785.4093153379529 83.35791411205142 L 785.1708263698578 83.35853902151385 L 784.9323355025872 83.35808581688464 L 784.6938665850294 83.3565545434839 L 784.4554434638771 83.35394535443767 L 784.2170899812442 83.35025851066268 L 783.9788299722798 83.34549438084025 L 783.7406872627865 83.33965344137938 L 783.5026856668369 83.33273627636916 L 783.2648489843921 83.32474357752032 L 783.0272009989221 83.31567614409607 L 782.7897654750276 83.30553488283223 L 782.5525661560629 83.29432080784645 L 782.3156267617625 83.28203504053688 L 782.0789709858682 83.26867880947003 L 781.8426224937604 83.25425345025786 L 781.6066049200913 83.2387604054243 L 781.3709418664217 83.22220122426089 L 781.1356568988606 83.20457756267194 L 780.9007735457086 83.18589118300896 L 780.6663152951053 83.16614395389433 L 780.4323055926804 83.1453378500345 L 780.198767839209 83.1234749520225 L 779.9657253882722 83.10055744612994 L 779.7332015439205 83.0765876240883 L 779.5012195583446 83.05156788285983 L 779.26980262955 83.02550072439777 L 779.0389738990365 82.99838875539625 L 778.8087564494849 82.9702346870296 L 778.5791733024483 82.94104133468117 L 778.35024741605 82.91081161766189 L 778.122001682688 82.87954855891824 L 777.8944589267454 82.84725528473007 L 777.6676419023081 82.81393502439788 L 777.4415732908897 82.77959110991993 L 777.2162756991627 82.74422697565906 L 776.9917716566986 82.7078461579992 L 776.7680836137147 82.67045229499183 L 776.5452339388288 82.63204912599208 L 776.3232449168227 82.59264049128484 L 776.1021387464136 82.55223033170074 L 775.8819375380342 82.51082268822206 L 775.662663311622 82.46842170157866 L 775.4443379944169 82.42503161183386 L 775.2269834187684 82.38065675796048 L 775.0106213199534 82.33530157740691 L 774.7952733340011 82.28897060565343 L 774.5809609955309 82.2416684757586 L 774.3677057355977 82.19339991789599 L 774.1555288795503 82.14416975888116 L 773.944451644897 82.093982921689 L 773.7344951391856 82.04284442496139 L 773.5256803578917 81.9907593825054 L 773.3180281823194 81.93773300278187 L 773.1115593775132 81.88377058838456 L 772.9062945901816 81.82887753550997 L 772.7022543466321 81.77305933341765 L 772.4994590507191 81.71632156388125 L 772.2979289818034 81.65866990063049 L 772.0976842927237 81.60011010878364 L 771.898745007782 81.54064804427107 L 771.7011310207413 81.48028965324968 L 771.5048620928354 81.41904097150828 L 771.3099578507936 81.35690812386402 L 771.1164377848777 81.29389732354986 L 770.9243212469329 81.23001487159334 L 770.7336274484531 81.16526715618642 L 770.5443754586591 81.09966065204667 L 770.3565842025922 81.03320191976985 L 770.1702724592216 80.9658976051738 L 769.9854588595662 80.89775443863388 L 769.8021618848321 80.82877923440998 L 769.620399864564 80.75897888996502 L 769.4401909748124 80.68836038527529 L 769.2615532363161 80.61693078213241 L 769.0845045127002 80.54469722343718 L 768.9090625086893 80.47166693248526 L 768.7352447683379 80.3978472122449 L 768.563068673275 80.3232454446266 L 768.3925514409666 80.24786908974494 L 768.223710122994 80.1717256851726 L 768.0565616033481 80.09482284518661 L 767.8911225967418 80.01716826000687 L 767.7274096469375 79.93876969502718 L 767.5654391250943 79.8596349900387 L 767.405227228129 79.77977205844599 L 767.2467899770978 79.69918888647567 L 767.090143215594 79.61789353237776 L 766.9353026081632 79.53589412561995 L 766.7822836387368 79.45319886607456 L 766.6311016090846 79.36981602319864 L 766.4817716372833 79.285753935207 L 766.3343086562057 79.20102100823838 L 766.1887274120272 79.11562571551488 L 766.0450424627508 79.02957659649458 L 765.9032681767516 78.94288225601771 L 765.7634187313402 78.85555136344604 L 765.6255081113444 78.76759265179608 L 765.4895501077114 78.67901491686568 L 765.3555583161283 78.58982701635452 L 765.2235461356626 78.50003786897832 L 765.0935267674222 78.40965645357701 L 764.9655132132357 78.31869180821683 L 764.8395182743518 78.22715302928646 L 764.7155545501595 78.13504927058754 L 764.5936344369278 78.0423897424192 L 764.4737701265664 77.94918371065702 L 764.3559736054065 77.85544049582653 L 764.240256653002 77.76116947217105 L 764.1266308409517 77.66638006671442 L 764.0151075317424 77.5710817583182 L 763.9056978776117 77.4752840767338 L 763.798412819434 77.37899660164953 L 763.6932630856257 77.2822289617327 L 763.5902591910727 77.18499083366663 L 763.4894114360784 77.08729194118311 L 763.3907299053343 76.98914205408997 L 763.2942244669114 76.89055098729412 L 763.1999047712729 76.7915285998201 L 763.1077802503099 76.69208479382412 L 763.0178601163977 76.59222951360391 L 762.9301533614748 76.4919727446043 L 762.8446687561435 76.39132451241862 L 762.7614148487933 76.29029488178622 L 762.6803999647452 76.18889395558598 L 762.6016322054204 76.08713187382602 L 762.5251194475292 75.9850188126297 L 762.4508693422833 75.88256498321807 L 762.3788893146318 75.77978063088868 L 762.3091865625171 75.6766760339911 L 762.2417680561566 75.57326150289911 L 762.1766405373446 75.46954737897966 L 762.1138105187787 75.36554403355866 L 762.0532842834085 75.26126186688404 L 761.995067883807 75.15671130708553 L 761.9391671415658 75.051902809132 L 761.8855876467123 74.94684685378591 L 761.8343347571515 74.84155394655524 L 761.7854135981297 74.73603461664295 L 761.7388290617218 74.63029941589413 L 761.694585806343 74.52435891774074 L 761.6526882562815 74.4182237161443 L 761.6131406012578 74.31190442453651 L 761.5759467960041 74.20541167475797 L 761.5411105598703 74.09875611599487 L 761.5086353764506 73.99194841371425 L 761.4785244932366 73.8849992485973 L 761.4507809212913 73.77791931547142 L 761.425407434949 73.6707193222407 L 761.402406571537 73.56340998881511 L 761.3817806311225 73.45600204603858 L 761.3635316762824 73.34850623461587 L 761.347661531897 73.24093330403855 L 761.3341717849675 73.13329401151005 L 761.3230637844572 73.0255991208699 L 761.3143386411572 72.91785940151743 L 761.3079972275742 72.81008562733479 L 761.3040401778446 72.70228857560959 L 761.3024678876699 72.59447902595716 L 761.3032805142778 72.48666775924264 L 761.3064779764064 72.37886555650284 L 761.3120599543121 72.27108319786822 L 761.3200258898017 72.16333146148482 L 761.3303749862885 72.05562112243648 L 761.3431062088713 71.94796295166735 L 761.3582182844384 71.84036771490479 L 761.375709701795 71.7328461715828 L 761.3955787118139 71.62540907376615 L 761.4178233276104 71.51806716507505 L 761.4424413247419 71.41083117961095 L 761.4694302414289 71.303711840883 L 761.4987873788023 71.19671986073584 L 761.5305098011728 71.0898659382783 L 761.5645943363247 70.9831607588136 L 761.6010375758327 70.87661499277074 L 761.6398358754035 70.77023929463756 L 761.6809853552392 70.66404430189523 L 761.7244819004262 70.55804063395452 L 761.7703211613463 70.45223889109387 L 761.8184985541114 70.34664965339942 L 761.8690092610227 70.24128347970696 L 761.9218482310513 70.13615090654604 L 761.9770101803445 70.03126244708635 L 762.0344895927531 69.92662859008644 L 762.0942807203838 69.82225979884483 L 762.1563775841737 69.71816651015365 L 762.2207739744882 69.61435913325504 L 762.287463451742 69.51084804880017 L 762.3564393470429 69.40764360781125 L 762.4276947628587 69.30475613064635 L 762.5012225737073 69.20219590596746 L 762.5770154268689 69.09997318971158 L 762.6550657431213 68.99809820406516 L 762.7353657174981 68.89658113644184 L 762.8179073200685 68.79543213846381 L 762.9026822967412 68.69466132494657 L 762.9896821700892 68.5942787728875 L 763.0788982401975 68.49429452045815 L 763.1703215855337 68.39471856600045 L 763.2639430638392 68.29556086702685 L 763.3597533130442 68.19683133922463 L 763.4577427522038 68.0985398554643 L 763.5579015824557 68.0006962448123 L 763.6602197880002 67.9033102915482 L 763.764687137102 67.80639173418614 L 763.8712931831135 67.70995026450109 L 763.9800272655187 67.61399552655968 L 764.090878511 67.5185371157557 L 764.2038358345254 67.42358457785073 L 764.3188879404565 67.3291474080194 L 764.4360233236787 67.23523504990001 L 764.555230270751 67.1418568946501 L 764.6764968610785 67.04902228000739 L 764.799810968103 66.95674048935598 L 764.9251602605163 66.86502075079804 L 765.052532203494 66.77387223623097 L 765.1819140599479 66.6833040604303 L 765.3132928918 66.59332528013812 L 765.4466555612765 66.50394489315748 L 765.5819887322219 66.41517183745259 L 765.7192788714318 66.32701499025507 L 765.8585122500066 66.23948316717613 L 765.9996749447245 66.15258512132516 L 766.1427528394336 66.06632954243435 L 766.2877316264637 65.98072505598967 L 766.434596808057 65.89578022236844 L 766.5833336978177 65.81150353598326 L 766.7339274221806 65.72790342443251 L 766.886362921899 65.6449882476577 L 767.0406249535498 65.56276629710739 L 767.1966980910585 65.48124579490812 L 767.3545667272413 65.40043489304219 L 767.5142150753662 65.32034167253244 L 767.6756271707313 65.24097414263417 L 767.8387868722618 65.16234024003424 L 768.0036778641233 65.08444782805738 L 768.1702836573543 65.00730469587987 L 768.338587591514 64.93091855775066 L 768.5085728363493 64.85529705221987 L 768.6802223934776 64.78044774137507 L 768.853519098086 64.70637811008497 L 769.0284456206485 64.63309556525095 L 769.2049844686587 64.56060743506646 L 769.3831179883788 64.48892096828408 L 769.5628283666053 64.41804333349076 L 769.7440976324502 64.34798161839092 L 769.9269076591379 64.27874282909767 L 770.1112401658181 64.21033388943226 L 770.2970767193939 64.14276164023164 L 770.4843987363645 64.07603283866442 L 770.6731874846844 64.01015415755516 L 770.8634240856362 63.94513218471705 L 771.0550895157184 63.880973422293216 L 771.2481646085474 63.81768428610641 L 771.4426300567751 63.75527110501753 L 771.6384664140187 63.69374012029266 L 771.8356540968055 63.633097484979004 L 772.0341733865317 63.57334926328955 L 772.2340044314337 63.51450142999669 L 772.4351272485735 63.456559869834706 L 772.6375217258371 63.39953037691132 L 772.8411676239455 63.34341865412832 L 773.0460445784782 63.28823031261122 L 773.2521321019109 63.233970871148166 L 773.4594095856628 63.180645755638096 L 773.6678563021583 63.128260298548135 L 773.8774514068995 63.07681973838032 L 774.0881739405504 63.02632921914782 L 774.3000028310335 62.976793789860466 L 774.5129168956361 62.928218404019916 L 774.7268948431292 62.88060791912427 L 774.9419152758965 62.83396709618235 L 775.1579566920736 62.78830059923757 L 775.3749974876991 62.74361299490159 L 775.5930159588745 62.69990875189758 L 775.8119903039341 62.65719224061343 L 776.0318986256259 62.61546773266468 L 776.252718933301 62.574739400467344 L 776.4744291451127 62.53501131682071 L 776.6970070902246 62.49628745450002 L 776.9204305110276 62.458571685859255 L 777.1446770653657 62.42186778244384 L 777.3697243287706 62.38617941461354 L 777.5955497967034 62.351510151175376 L 777.8221308868054 62.31786345902682 L 778.0494449411566 62.28524270280904 L 778.2774692285407 62.25365114457048 L 778.5061809467192 62.223091943440636 L 778.7355572247108 62.193568155314146 L 778.9655751250789 62.16508273254523 L 779.196211646225 62.13763852365243 L 779.4274437246894 62.11123827303375 L 779.6592482374567 62.08588462069226 L 779.8916020042691 62.06158010197207 L 780.1244817899433 62.0383271473048 L 780.3578643066949 62.01612808196653 L 780.5917262164667 61.9949851258453 L 780.8260441332625 61.9749003932191 L 781.060794625486 61.955875892544455 L 781.2959542182836 61.937913526255585 L 781.531499395892 61.92101509057415 L 781.7674066039896 61.90518227532963 L 782.0036522520523 61.89041666379036 L 782.2402127157121 61.87671973250519 L 782.4770643391199 61.864092851155824 L 782.7141834373106 61.85253728241989 L 782.951546298572 61.84205418184462 L 783.1891291868158 61.83264459773134 L 783.426908343951 61.82430947103062 L 783.6648599922604 61.81704963524818 L 783.9029603367771 61.81086581636156 L 784.1411855676653 61.80575863274749 L 784.3795118626003 61.80172859512007 L 784.6179153891513 61.798776106479714 L 784.8563723071642 61.79690146207281 L 785.094858771146 61.79610484936225 L 785.3333509326491 61.79638634800864 L 785.5718249426559 61.797745929862344 L 785.8102569539643 61.800183458966316 L 786.0486231235718 61.80369869156968 L 786.2868996150601 61.80829127615209 L 786.5250626009786 61.81396075345893 L 786.7630882652271 61.82070655654718 L 787.0009528054376 61.82852801084216 L 787.2386324353542 61.83742433420497 L 787.4761033872123 61.847394637010666 L 787.7133419141143 61.858437922237286 L 787.9503242924052 61.87055308556552 L 788.1870268240448 61.883738915489104 L 788.4234258389771 61.89799409343607 L 788.6594976974977 61.91331719390047 L 788.8952187926174 61.92970668458504 L 789.130565552423 61.947160926554375 L 789.3655144424349 61.96567817439882 L 789.6000419679597 61.985256576409014 L 789.8341246764404 62.00589417476108 L 790.0677391598011 62.02758890571238 L 790.3008620567882 62.050338599807894 L 790.5334700553063 62.07414098209717 L 790.7655398947494 62.098993672361814 L 790.9970483683269 62.12489418535351 L 791.2279723253844 62.15183993104255 L 791.4582886737186 62.17982821487682 L 791.6879743818865 62.20885623805124 L 791.9170064815089 62.23892109778771 L 792.1453620695665 62.27001978762529 L 792.373018310691 62.30214919772092 L 792.5999524394477 62.335306115160364 L 792.8261417626131 62.36948722427951 L 793.0515636614434 62.40468910699593 L 793.2761955939363 62.44090824315068 L 793.500015097086 62.47814101086034 L 793.7229997891286 62.51638368687915 L 793.9451273717806 62.5556324469714 L 794.1663756324691 62.59588336629376 L 794.3867224465522 62.63713241978786 L 794.6061457795321 62.67937548258273 L 794.8246236892585 62.72260833040727 L 795.0421343281224 62.76682664001274 L 795.2586559452412 62.81202598960502 L 795.4741668886336 62.85820185928682 L 795.6886456073848 62.90534963150966 L 795.9020706538018 62.95346459153559 L 796.1144206855578 63.00254192790872 L 796.3256744678265 63.05257673293631 L 796.5358108754057 63.10356400317954 L 796.7448088948297 63.15549863995388 L 796.9526476264709 63.20837544983894 L 797.1593062866292 63.26218914519778 L 797.3647642096109 63.31693434470572 L 797.5690008497949 63.37260557388843 L 797.7719957836872 63.42919726566938 L 797.9737287119638 63.486703760926545 L 798.1741794614999 63.545119309058336 L 798.3733279873875 63.604438068558615 L 798.5711543749401 63.66465410760085 L 798.7676388416837 63.72576140463134 L 798.9627617393355 63.787753848971285 L 799.1565035557683 63.85062524142792 L 799.3488449169616 63.914369294914394 L 799.5397665889401 63.978979635078474 L 799.7292494796952 64.04444980093999 L 799.9172746410961 64.11077324553689 L 800.1038232707832 64.17794333658003 L 800.2888767140489 64.24595335711624 L 800.4724164657032 64.31479650620015 L 800.6544241719239 64.38446589957424 L 800.834881632092 64.45495457035722 L 801.0137708006118 64.52625546974073 L 801.1910737887156 64.59836146769428 L 801.3667728662524 64.67126535367815 L 801.5408504634607 64.74495983736449 L 801.713289172726 64.81943754936636 L 801.884071750321 64.8946910419746 L 802.0531811181303 64.97071278990268 L 802.2206003653579 65.04749519103915 L 802.3863127502187 65.12503056720787 L 802.5503017016124 65.20331116493587 L 802.7125508207804 65.28232915622857 L 802.873043882946 65.36207663935272 L 803.0317648389369 65.44254563962645 L 803.1886978167894 65.52372811021678 L 803.3438271233367 65.60561593294433 L 803.4971372457776 65.68820091909505 L 803.6486128532273 65.77147481023914 L 803.7982387982514 65.85542927905689 L 803.9460001183802 65.94005593017138 L 804.0918820376047 66.02534630098802 L 804.2358699678546 66.11129186254078 L 804.3779495104568 66.19788402034517 L 804.5181064575755 66.28511411525754 L 804.6563267936327 66.3729734243411 L 804.7925966967101 66.46145316173815 L 804.9269025399309 66.55054447954868 L 805.0592308928227 66.64023846871517 L 805.1895685226604 66.73052615991342 L 805.3179023957897 66.82139852444959 L 805.4442196789304 66.91284647516291 L 805.568507740459 67.00486086733454 L 805.6907541516734 67.09743249960195 L 805.8109466880342 67.19055211487903 L 805.9290733303878 67.28421040128185 L 806.0451222661685 67.37839799305985 L 806.1590818905794 67.47310547153232 L 806.270940807753 67.56832336603034 L 806.3806878318909 67.66404215484381 L 806.4883119883821 67.76025226617361 L 806.5938025149005 67.85694407908878 L 806.6971488624815 67.9541079244886 L 806.7983406965765 68.0517340860695 L 806.8973678980864 68.1498128012967 L 806.9942205643733 68.2483342623804 L 807.0888890102517 68.34728861725657 L 807.1813637689556 68.4466659705722 L 807.2716355930864 68.54645638467478 L 807.3596954555368 68.64664988060605 L 807.4455345503939 68.74723643909991 L 807.5291442938199 68.84820600158433 L 807.6105163249098 68.94954847118721 L 807.6896425065287 69.05125371374604 L 807.7665149261242 69.15331155882131 L 807.8411258965183 69.25571180071357 L 807.9134679566764 69.35844419948396 L 807.9835338724525 69.46149848197821 L 808.0513166373136 69.56486434285397 L 808.1168094730396 69.66853144561125 L 808.1800058304013 69.7724894236262 L 808.2408993898161 69.87672788118763 L 808.2994840619785 69.98123639453667 L 808.3557539884702 70.08600451290904 L 808.4097035423454 70.19102175958024 L 808.4613273286936 70.2962776329131 L 808.5106201851793 70.40176160740802 L 808.5575771825579 70.50746313475543 L 808.6021936251688 70.61337164489069 L 808.6444650514048 70.71947654705104 L 808.6843872341586 70.8257672308347 L 808.7219561812453 70.93223306726183 L 808.7571681358013 71.03886340983755 L 808.7900195766606 71.14564759561644 L 808.8205072187066 71.25257494626891 L 808.8486280132003 71.35963476914901 L 808.8743791480856 71.46681635836364 L 808.8977580482708 71.57410899584325 L 808.9187623758851 71.68150195241344 L 808.9373900305134 71.78898448886808 L 808.9536391494056 71.8965458570431 L 808.9675081076635 72.0041753008913 L 808.9789955184028 72.11186205755799 L 808.988100232892 72.21959535845724 L 808.9948213406672 72.32736443034875 L 808.9991581696231 72.43515849641513 L 809.0011102860807 72.5429667773396 M 809.0012312761367 106.88123519189998 L 809.000038816233 106.98904573681659 L 808.9964615557669 107.09684550076857 L 808.9904998524617 107.20462370386933 L 808.9821543024823 107.31236956838838 L 808.9714257403771 107.42007231982906 L 808.9583152389932 107.52772118800598 L 808.94282410937 107.63530540812202 L 808.9249539006074 107.74281422184482 L 808.9047063997114 107.85023687838263 L 808.8820836314152 107.95756263555927 L 808.8570878579768 108.0647807608885 L 808.8297215789528 108.1718805326471 L 808.7999875309482 108.27885124094716 L 808.7678886873431 108.385682188807 L 808.733428257995 108.49236269322084 L 808.6966096889182 108.59888208622715 L 808.6574366619388 108.7052297159754 L 808.6159130943271 108.81139494779123 L 808.5720431384051 108.91736716523994 L 808.5258311811317 109.02313577118808 L 808.4772818436644 109.1286901888632 L 808.4263999808963 109.2340198629115 L 808.3731906809714 109.33911426045334 L 808.3176592647752 109.44396287213657 L 808.2598112854032 109.54855521318736 L 808.199652527605 109.65288082445878 L 808.1371890072064 109.75692927347664 L 808.0724269705072 109.86069015548276 L 808.0053728936572 109.96415309447538 L 807.9360334820083 110.06730774424683 L 807.8644156694436 110.1701437894181 L 807.7905266176849 110.27265094647038 L 807.7143737155759 110.37481896477335 L 807.6359645783431 110.47663762761036 L 807.555307046835 110.57809675319996 L 807.4724091867375 110.67918619571412 L 807.3872792877677 110.77989584629286 L 807.2999258628442 110.88021563405503 L 807.2103576472371 110.98013552710546 L 807.118583597693 111.0796455335381 L 807.0246128915405 111.17873570243525 L 806.928454925772 111.27739612486258 L 806.830119316104 111.37561693486008 L 806.729615896015 111.47338831042858 L 806.626954715764 111.570700474512 L 806.5221460413829 111.66754369597504 L 806.415200353652 111.76390829057625 L 806.3061283470511 111.85978462193647 L 806.1949409286898 111.95516310250247 L 806.0816492172172 112.05003419450567 L 805.9662645417103 112.14438841091592 L 805.8487984405402 112.23821631639022 L 805.7292626602193 112.3315085282162 L 805.6076691542261 112.42425571725045 L 805.4840300818097 112.5164486088513 L 805.3583578067743 112.60807798380648 L 805.2306648962428 112.69913467925481 L 805.1009641193998 112.78960958960263 L 804.9692684462149 112.87949366743432 L 804.8355910461456 112.96877792441698 L 804.6999452868207 113.05745343219934 L 804.5623447327029 113.14551132330449 L 804.422803143733 113.23294279201671 L 804.2813344739536 113.319739095262 L 804.1379528701138 113.40589155348235 L 803.9926726702547 113.49139155150372 L 803.8455084022748 113.5762305393976 L 803.6964747824787 113.66040003333586 L 803.5455867141038 113.74389161643927 L 803.3928592858315 113.82669693961908 L 803.2383077702773 113.90880772241199 L 803.0819476224638 113.99021575380814 L 802.9237944782755 114.07091289307223 L 802.7638641528952 114.15089107055758 L 802.602172639222 114.2301422885131 L 802.4387361062727 114.30865862188301 L 802.2735708975641 114.38643221909942 L 802.1066935294798 114.46345530286743 L 801.9381206896173 114.53972017094284 L 801.7678692351202 114.61521919690239 L 801.5959561909921 114.6899448309064 L 801.422398748394 114.76388960045375 L 801.2472142629257 114.83704611112911 L 801.0704202528897 114.90940704734236 L 800.8920343975396 114.98096517306018 L 800.7120745353124 115.05171333252966 L 800.5305586620443 115.12164445099376 L 800.3475049291714 115.19075153539895 L 800.1629316419144 115.25902767509436 L 799.9768572574482 115.32646604252292 L 799.7893003830562 115.39305989390408 L 799.6002797742696 115.45880256990822 L 799.4098143329917 115.5236874963225 L 799.2179231056078 115.58770818470835 L 799.0246252810811 115.6508582330503 L 798.8299401890325 115.71313132639612 L 798.6338872978093 115.77452123748839 L 798.4364862125371 115.83502182738714 L 798.2377566731601 115.89462704608381 L 798.0377185524663 115.95333093310619 L 797.8363918541014 116.01112761811451 L 797.6337967105674 116.06801132148843 L 797.4299533812095 116.123976354905 L 797.2248822501913 116.17901712190753 L 797.0186038244545 116.2331281184652 L 796.8111387316702 116.28630393352341 L 796.6025077181745 116.33853924954501 L 796.3927316468951 116.3898288430419 L 796.1818314952641 116.44016758509747 L 795.969828353121 116.48955044187947 L 795.7567434206034 116.53797247514339 L 795.542598006027 116.58542884272623 L 795.3274135237547 116.63191479903078 L 795.1112114920554 116.67742569550018 L 794.8940135309523 116.72195698108266 L 794.6758413600603 116.7655042026868 L 794.4567167964148 116.80806300562674 L 794.2366617522894 116.84962913405762 L 794.0156982330053 116.89019843140126 L 793.7938483347303 116.92976684076172 L 793.5711342422693 116.96833040533105 L 793.3475782268458 117.00588526878491 L 793.1232026438754 117.04242767566826 L 792.8980299307291 117.07795397177088 L 792.6720826044907 117.11246060449274 L 792.4453832597045 117.14594412319934 L 792.2179545661161 117.1784011795667 L 791.9898192664052 117.20982852791624 L 791.761000173912 117.24022302553931 L 791.5315201703546 117.26958163301148 L 791.3014022035426 117.29790141449647 L 791.0706692850805 117.3251795380397 L 790.8393444880681 117.3514132758516 L 790.6074509447923 117.37660000458023 L 790.3750118444142 117.40073720557368 L 790.1420504306501 117.42382246513199 L 789.9085899994471 117.44585347474845 L 789.6746538966541 117.46682803134043 L 789.4402655156862 117.48674403746976 L 789.2054482951862 117.50559950155244 L 788.9702257166806 117.52339253805775 L 788.734621302231 117.54012136769688 L 788.4986586120826 117.55578431760082 L 788.262361242308 117.5703798214876 L 788.025752822447 117.58390641981903 L 787.7888570131444 117.59636275994653 L 787.5516975037839 117.60774759624645 L 787.3142980101187 117.61805979024469 L 787.0766822719003 117.6272983107304 L 786.8388740505046 117.63546223385926 L 786.6008971265555 117.64255074324575 L 786.3627752975472 117.64856313004483 L 786.124532375464 117.65349879302285 L 785.8861921843996 117.6573572386176 L 785.6477785581747 117.66013808098776 L 785.4093153379529 117.6618410420514 L 785.1708263698578 117.66246595151384 L 784.9323355025872 117.66201274688463 L 784.6938665850294 117.66048147348388 L 784.4554434638771 117.65787228443766 L 784.2170899812442 117.65418544066267 L 783.9788299722798 117.64942131084024 L 783.7406872627865 117.64358037137937 L 783.5026856668369 117.63666320636915 L 783.2648489843921 117.62867050752031 L 783.0272009989221 117.61960307409606 L 782.7897654750276 117.60946181283222 L 782.5525661560629 117.59824773784644 L 782.3156267617625 117.58596197053687 L 782.0789709858682 117.57260573947002 L 781.8426224937604 117.55818038025785 L 781.6066049200913 117.54268733542429 L 781.3709418664217 117.52612815426087 L 781.1356568988606 117.50850449267193 L 780.9007735457086 117.48981811300895 L 780.6663152951053 117.47007088389432 L 780.4323055926804 117.44926478003448 L 780.198767839209 117.4274018820225 L 779.9657253882722 117.40448437612993 L 779.7332015439205 117.3805145540883 L 779.5012195583446 117.35549481285982 L 779.26980262955 117.32942765439776 L 779.0389738990365 117.30231568539624 L 778.8087564494849 117.27416161702959 L 778.5791733024483 117.24496826468116 L 778.35024741605 117.21473854766188 L 778.122001682688 117.18347548891823 L 777.8944589267454 117.15118221473006 L 777.6676419023081 117.11786195439787 L 777.4415732908897 117.08351803991992 L 777.2162756991627 117.04815390565905 L 776.9917716566986 117.01177308799919 L 776.7680836137147 116.97437922499182 L 776.5452339388288 116.93597605599207 L 776.3232449168227 116.89656742128483 L 776.1021387464136 116.85615726170073 L 775.8819375380342 116.81474961822205 L 775.662663311622 116.77234863157865 L 775.4443379944169 116.72895854183385 L 775.2269834187684 116.68458368796047 L 775.0106213199534 116.6392285074069 L 774.7952733340011 116.59289753565342 L 774.5809609955309 116.54559540575859 L 774.3677057355977 116.49732684789598 L 774.1555288795503 116.44809668888115 L 773.944451644897 116.397909851689 L 773.7344951391856 116.34677135496138 L 773.5256803578917 116.29468631250539 L 773.3180281823194 116.24165993278186 L 773.1115593775132 116.18769751838455 L 772.9062945901816 116.13280446550996 L 772.7022543466321 116.07698626341764 L 772.4994590507191 116.02024849388124 L 772.2979289818034 115.96259683063047 L 772.0976842927237 115.90403703878363 L 771.898745007782 115.84457497427105 L 771.7011310207413 115.78421658324967 L 771.5048620928354 115.72296790150827 L 771.3099578507936 115.660835053864 L 771.1164377848777 115.59782425354985 L 770.9243212469329 115.53394180159333 L 770.7336274484531 115.4691940861864 L 770.5443754586591 115.40358758204665 L 770.3565842025922 115.33712884976984 L 770.1702724592216 115.26982453517378 L 769.9854588595662 115.20168136863387 L 769.8021618848321 115.13270616440997 L 769.620399864564 115.06290581996501 L 769.4401909748124 114.99228731527528 L 769.2615532363161 114.9208577121324 L 769.0845045127002 114.84862415343717 L 768.9090625086893 114.77559386248525 L 768.7352447683379 114.70177414224489 L 768.563068673275 114.62717237462658 L 768.3925514409666 114.55179601974493 L 768.223710122994 114.47565261517259 L 768.0565616033481 114.3987497751866 L 767.8911225967418 114.32109519000686 L 767.7274096469375 114.24269662502716 L 767.5654391250943 114.16356192003869 L 767.405227228129 114.08369898844597 L 767.2467899770978 114.00311581647566 L 767.090143215594 113.92182046237775 L 766.9353026081632 113.83982105561994 L 766.7822836387368 113.75712579607455 L 766.6311016090846 113.67374295319863 L 766.4817716372833 113.58968086520699 L 766.3343086562057 113.50494793823837 L 766.1887274120272 113.41955264551487 L 766.0450424627508 113.33350352649457 L 765.9032681767516 113.2468091860177 L 765.7634187313402 113.15947829344603 L 765.6255081113444 113.07151958179607 L 765.4895501077114 112.98294184686567 L 765.3555583161283 112.89375394635451 L 765.2235461356626 112.80396479897831 L 765.0935267674222 112.713583383577 L 764.9655132132357 112.62261873821681 L 764.8395182743518 112.53107995928644 L 764.7155545501595 112.43897620058753 L 764.5936344369278 112.34631667241919 L 764.4737701265664 112.25311064065701 L 764.3559736054065 112.15936742582652 L 764.240256653002 112.06509640217104 L 764.1266308409517 111.97030699671441 L 764.0151075317424 111.87500868831819 L 763.9056978776117 111.77921100673379 L 763.798412819434 111.68292353164952 L 763.6932630856257 111.58615589173269 L 763.5902591910727 111.48891776366662 L 763.4894114360784 111.3912188711831 L 763.3907299053343 111.29306898408996 L 763.2942244669114 111.19447791729411 L 763.1999047712729 111.09545552982009 L 763.1077802503099 110.99601172382411 L 763.0178601163977 110.8961564436039 L 762.9301533614748 110.79589967460429 L 762.8446687561435 110.69525144241861 L 762.7614148487933 110.59422181178621 L 762.6803999647452 110.49282088558597 L 762.6016322054204 110.39105880382601 L 762.5251194475292 110.28894574262969 L 762.4508693422833 110.18649191321806 L 762.3788893146318 110.08370756088867 L 762.3091865625171 109.98060296399109 L 762.2417680561566 109.8771884328991 L 762.1766405373446 109.77347430897964 L 762.1138105187787 109.66947096355865 L 762.0532842834085 109.56518879688403 L 761.995067883807 109.46063823708552 L 761.9391671415658 109.35582973913199 L 761.8855876467123 109.2507737837859 L 761.8343347571515 109.14548087655523 L 761.7854135981297 109.03996154664294 L 761.7388290617218 108.93422634589412 L 761.694585806343 108.82828584774073 L 761.6526882562815 108.72215064614429 L 761.6131406012578 108.6158313545365 L 761.5759467960041 108.50933860475796 L 761.5411105598703 108.40268304599486 L 761.5086353764506 108.29587534371424 L 761.4785244932366 108.18892617859728 L 761.4507809212913 108.08184624547141 L 761.425407434949 107.97464625224069 L 761.402406571537 107.8673369188151 L 761.3817806311225 107.75992897603857 L 761.3635316762824 107.65243316461586 L 761.347661531897 107.54486023403854 L 761.3341717849675 107.43722094151003 L 761.3230637844572 107.32952605086989 L 761.3143386411572 107.22178633151742 L 761.3079972275742 107.11401255733477 L 761.3040401778446 107.00621550560957 L 761.3024678876699 106.89840595595714" stroke-miterlimit="10" stroke-width="2.7769845610000004" stroke-dasharray=""/></g><g><text fill="blue" stroke="none" font-family="sans-serif" font-size="11pt" font-style="normal" font-weight="normal" text-decoration="normal" x="743.5985278785469" y="135.19014251079997" text-anchor="start" dominant-baseline="alphabetic" xml:space="preserve">File-Sharing </text><text fill="blue" stroke="none" font-family="sans-serif" font-size="11pt" font-style="normal" font-weight="normal" text-decoration="normal" x="756.2148379981758" y="151.52534581079996" text-anchor="start" dominant-baseline="alphabetic" xml:space="preserve">Endpoint</text></g><path fill="none" stroke="none"/><g><path fill="white" stroke="black" paint-order="fill stroke markers" d=" M 864.9456980387305 96.1490066238 L 1034.816795254418 96.1490066238 L 1034.816795254418 156.4259068008 L 864.9456980387305 156.4259068008 L 864.9456980387305 96.1490066238 Z" stroke-miterlimit="10" stroke-width="2.613632528" stroke-dasharray=""/></g><g><text fill="black" stroke="none" font-family="sans-serif" font-size="11pt" font-style="normal" font-weight="normal" text-decoration="normal" x="882.6693936192305" y="123.7555002008" text-anchor="start" dominant-baseline="alphabetic" xml:space="preserve">Commercial Satellite</text><text fill="black" stroke="none" font-family="sans-serif" font-size="11pt" font-style="normal" font-weight="normal" text-decoration="normal" x="908.7359600865157" y="140.0907035008" text-anchor="start" dominant-baseline="alphabetic" xml:space="preserve">Provider API</text></g></g><g><g><g><rect fill="white" stroke="none" x="139.75955684513545" y="189.09631340079997" width="132.83178962769531" height="21.23576429"/></g><g><rect fill="white" stroke="none" x="139.75955684513545" y="205.43151670079996" width="253.37576545777344" height="21.23576429"/></g><text fill="black" stroke="none" font-family="sans-serif" font-size="11pt" font-style="normal" font-weight="normal" text-decoration="normal" x="202.4818252551745" y="203.79799637079995" text-anchor="start" dominant-baseline="alphabetic" xml:space="preserve"> Subscribe to Topic </text><text fill="black" stroke="none" font-family="sans-serif" font-size="11pt" font-style="normal" font-weight="normal" text-decoration="normal" x="142.20983734013544" y="220.13319967079994" text-anchor="start" dominant-baseline="alphabetic" xml:space="preserve">(wait for message from Monitor Client)</text></g><g><path fill="none" stroke="black" paint-order="fill stroke markers" d=" M 111.8576287124336 226.66728099079998 L 407.58793305194405 226.66728099079998" stroke-miterlimit="10" stroke-width="1.3612669416666667" stroke-dasharray="6.53408132"/><g transform="translate(421.0372504356107,226.66728099079998) translate(-421.0372504356107,-226.66728099079998)"><path fill="black" stroke="none" paint-order="stroke fill markers" d=" M 407.424581018944 219.86094628246664 L 421.0372504356107 226.66728099079998 L 407.424581018944 233.47361569913332 Z"/></g></g><g><g><rect fill="white" stroke="none" x="645.6385756821146" y="251.1700859408" width="93.72658027710938" height="21.23576429"/></g><g><rect fill="white" stroke="none" x="645.6385756821146" y="267.5052892408" width="77.4202143103125" height="21.23576429"/></g><g><rect fill="white" stroke="none" x="645.6385756821146" y="283.84049254079997" width="72.50967659058594" height="21.23576429"/></g><text fill="black" stroke="none" font-family="sans-serif" font-size="11pt" font-style="normal" font-weight="normal" text-decoration="normal" x="648.0888561771146" y="265.8717689108" text-anchor="start" dominant-baseline="alphabetic" xml:space="preserve">Continuously </text><text fill="black" stroke="none" font-family="sans-serif" font-size="11pt" font-style="normal" font-weight="normal" text-decoration="normal" x="656.2420391605131" y="282.20697221079996" text-anchor="start" dominant-baseline="alphabetic" xml:space="preserve">Monitoring </text><text fill="black" stroke="none" font-family="sans-serif" font-size="11pt" font-style="normal" font-weight="normal" text-decoration="normal" x="658.6973080203763" y="298.54217551079995" text-anchor="start" dominant-baseline="alphabetic" xml:space="preserve">for Activity</text></g><g><path fill="none" stroke="black" paint-order="fill stroke markers" d=" M 599.8518971832018 305.0762568308 L 783.1099340456367 305.0762568308" stroke-miterlimit="10" stroke-width="1.3612669416666667" stroke-dasharray="6.53408132"/><g transform="translate(785.1518344581367,305.0762568308) translate(-785.1518344581367,-305.0762568308)"><path fill="none" stroke="black" paint-order="fill stroke markers" d=" M 771.1565900750827 298.83285934517653 L 783.6215345925872 305.0762568308 L 771.1565900750827 311.31965431642345" stroke-miterlimit="10" stroke-width="1.3612669416666667"/></g></g><path fill="white" stroke="black" paint-order="fill stroke markers" d=" M 949.8812466465743 356.5321472258 L 941.7136449965742 356.5321472258 M 808.0211190781368 329.5790617808 L 941.7136449965744 329.5790617808 L 941.7136449965744 383.4852326708 L 808.0211190781368 383.4852326708 L 793.3194361081369 356.5321472258 L 808.0211190781368 329.5790617808" stroke-miterlimit="10" stroke-width="1.3612669416666667" stroke-dasharray=""/><g><text fill="black" stroke="none" font-family="sans-serif" font-size="11pt" font-style="normal" font-weight="normal" text-decoration="normal" x="830.8558578741329" y="352.44834640079995" text-anchor="start" dominant-baseline="alphabetic" xml:space="preserve">Delivery of </text><text fill="black" stroke="none" font-family="sans-serif" font-size="11pt" font-style="normal" font-weight="normal" text-decoration="normal" x="816.1887207281368" y="368.78354970079994" text-anchor="start" dominant-baseline="alphabetic" xml:space="preserve">Data Product(s)</text></g><g><g><rect fill="white" stroke="none" x="619.1818877548685" y="407.98803762079996" width="99.41736091675781" height="21.23576429"/></g><g><rect fill="white" stroke="none" x="619.1818877548685" y="424.32324092079995" width="146.63995613160156" height="21.23576429"/></g><text fill="black" stroke="none" font-family="sans-serif" font-size="11pt" font-style="normal" font-weight="normal" text-decoration="normal" x="645.2434658572904" y="422.68972059079994" text-anchor="start" dominant-baseline="alphabetic" xml:space="preserve"> File Detected </text><text fill="black" stroke="none" font-family="sans-serif" font-size="11pt" font-style="normal" font-weight="normal" text-decoration="normal" x="621.6321682498685" y="439.0249238907999" text-anchor="start" dominant-baseline="alphabetic" xml:space="preserve">(or empty EOT.txt file)</text></g><g><path fill="none" stroke="black" paint-order="fill stroke markers" d=" M 785.1518344581367 445.55900521079997 L 613.3012145668685 445.55900521079997" stroke-miterlimit="10" stroke-width="1.3612669416666667" stroke-dasharray=""/><g transform="translate(599.8518971832018,445.55900521079997) translate(-599.8518971832018,-445.55900521079997)"><path fill="black" stroke="none" paint-order="stroke fill markers" d=" M 613.4645665998685 438.75267050246663 L 599.8518971832018 445.55900521079997 L 613.4645665998685 452.3653399191333 Z"/></g></g><g><g><rect fill="white" stroke="none" x="440.36724100727736" y="391.65283432079997" width="140.15466560425781" height="21.23576429"/></g><g><rect fill="white" stroke="none" x="440.36724100727736" y="407.98803762079996" width="92.91771186890625" height="21.23576429"/></g><g><rect fill="white" stroke="none" x="440.36724100727736" y="424.32324092079995" width="97.00503791871094" height="21.23576429"/></g><text fill="black" stroke="none" font-family="sans-serif" font-size="11pt" font-style="normal" font-weight="normal" text-decoration="normal" x="442.8175215022774" y="406.35451729079995" text-anchor="start" dominant-baseline="alphabetic" xml:space="preserve"> </text><text fill="black" stroke="none" font-family="sans-serif" font-size="11pt" font-style="normal" font-weight="bold" text-decoration="normal" x="446.89053480794144" y="406.35451729079995" text-anchor="start" dominant-baseline="alphabetic" xml:space="preserve">Message Payload:</text><text fill="black" stroke="none" font-family="sans-serif" font-size="11pt" font-style="normal" font-weight="normal" text-decoration="normal" x="573.9986128108711" y="406.35451729079995" text-anchor="start" dominant-baseline="alphabetic" xml:space="preserve"> </text><text fill="black" stroke="none" font-family="sans-serif" font-size="11pt" font-style="normal" font-weight="normal" text-decoration="normal" x="466.43599836995315" y="422.68972059079994" text-anchor="start" dominant-baseline="alphabetic" xml:space="preserve">filename and </text><text fill="black" stroke="none" font-family="sans-serif" font-size="11pt" font-style="normal" font-weight="normal" text-decoration="normal" x="464.3923353450508" y="439.0249238907999" text-anchor="start" dominant-baseline="alphabetic" xml:space="preserve">https endpoint</text></g><g><path fill="none" stroke="black" paint-order="fill stroke markers" d=" M 599.8518971832018 445.55900521079997 L 434.48656781927735 445.55900521079997" stroke-miterlimit="10" stroke-width="1.3612669416666667" stroke-dasharray=""/><g transform="translate(421.0372504356107,445.55900521079997) translate(-421.0372504356107,-445.55900521079997)"><path fill="black" stroke="none" paint-order="stroke fill markers" d=" M 434.6499198522774 438.75267050246663 L 421.0372504356107 445.55900521079997 L 434.6499198522774 452.3653399191333 Z"/></g></g><g><g><rect fill="white" stroke="none" x="131.1876192841003" y="407.98803762079996" width="225.6664759069922" height="21.23576429"/></g><g><rect fill="white" stroke="none" x="131.1876192841003" y="424.32324092079995" width="270.5196405798437" height="21.23576429"/></g><text fill="black" stroke="none" font-family="sans-serif" font-size="11pt" font-style="normal" font-weight="normal" text-decoration="normal" x="156.06448211552606" y="422.68972059079994" text-anchor="start" dominant-baseline="alphabetic" xml:space="preserve"> </text><text fill="black" stroke="none" font-family="sans-serif" font-size="11pt" font-style="normal" font-weight="bold" text-decoration="normal" x="160.13749542119012" y="422.68972059079994" text-anchor="start" dominant-baseline="alphabetic" xml:space="preserve">Broker Routes to Subscribers:</text><text fill="black" stroke="none" font-family="sans-serif" font-size="11pt" font-style="normal" font-weight="normal" text-decoration="normal" x="372.7573837268542" y="422.68972059079994" text-anchor="start" dominant-baseline="alphabetic" xml:space="preserve"> </text><text fill="black" stroke="none" font-family="sans-serif" font-size="11pt" font-style="normal" font-weight="normal" text-decoration="normal" x="133.63789977910028" y="439.0249238907999" text-anchor="start" dominant-baseline="alphabetic" xml:space="preserve">Relays message payload across Firewall</text></g><g><path fill="none" stroke="black" paint-order="fill stroke markers" d=" M 421.0372504356107 445.55900521079997 L 125.30694609610026 445.55900521079997" stroke-miterlimit="10" stroke-width="1.3612669416666667" stroke-dasharray=""/><g transform="translate(111.8576287124336,445.55900521079997) translate(-111.8576287124336,-445.55900521079997)"><path fill="black" stroke="none" paint-order="stroke fill markers" d=" M 125.47029812910026 438.75267050246663 L 111.8576287124336 445.55900521079997 L 125.47029812910026 452.3653399191333 Z"/></g></g><g><g><rect fill="white" stroke="none" x="389.01795206684767" y="470.06181016079995" width="118.973559036875" height="21.23576429"/></g><text fill="black" stroke="none" font-family="sans-serif" font-size="11pt" font-style="normal" font-weight="normal" text-decoration="normal" x="391.4682325618477" y="484.76349313079993" text-anchor="start" dominant-baseline="alphabetic" xml:space="preserve"> File Get Request</text></g><g><path fill="none" stroke="black" paint-order="fill stroke markers" d=" M 111.8576287124336 491.29757445079997 L 771.70251707447 491.29757445079997" stroke-miterlimit="10" stroke-width="1.3612669416666667" stroke-dasharray="6.53408132"/><g transform="translate(785.1518344581367,491.29757445079997) translate(-785.1518344581367,-491.29757445079997)"><path fill="black" stroke="none" paint-order="stroke fill markers" d=" M 771.53916504147 484.49123974246663 L 785.1518344581367 491.29757445079997 L 771.53916504147 498.1039091591333 Z"/></g></g><path fill="white" stroke="black" paint-order="fill stroke markers" d=" M 111.85762871243361 515.8003794008 L 799.8535174281367 515.8003794008 L 799.8535174281367 553.3713469908 L 111.85762871243361 553.3713469908 L 97.1559457424336 534.5858631958 L 111.85762871243361 515.8003794008" stroke-miterlimit="10" stroke-width="1.3612669416666667" stroke-dasharray=""/><g><text fill="black" stroke="none" font-family="sans-serif" font-size="11pt" font-style="normal" font-weight="normal" text-decoration="normal" x="307.56707899739456" y="538.6696640208" text-anchor="start" dominant-baseline="alphabetic" xml:space="preserve"> Delivery of Data Product(s) across Firewall</text></g></g></g></svg>