<?xml version="1.0" encoding="UTF-8" standalone="no"?>
<!-- Created with Inkscape (http://www.inkscape.org/) -->

<svg
   width="24cm"
   height="11cm"
   viewBox="0 0 240 110"
   version="1.1"
   id="svg113"
   inkscape:version="1.1.1 (3bf5ae0d25, 2021-09-20)"
   sodipodi:docname="SatelliteCost_v_Time.svg"
   xmlns:inkscape="http://www.inkscape.org/namespaces/inkscape"
   xmlns:sodipodi="http://sodipodi.sourceforge.net/DTD/sodipodi-0.dtd"
   xmlns="http://www.w3.org/2000/svg"
   xmlns:svg="http://www.w3.org/2000/svg">
  <sodipodi:namedview
     id="namedview115"
     pagecolor="#ffffff"
     bordercolor="#666666"
     borderopacity="1.0"
     inkscape:pageshadow="2"
     inkscape:pageopacity="0.0"
     inkscape:pagecheckerboard="0"
     inkscape:document-units="mm"
     showgrid="false"
     units="cm"
     fit-margin-top="0"
     fit-margin-left="0"
     fit-margin-right="0"
     fit-margin-bottom="0"
     inkscape:zoom="0.64052329"
     inkscape:cx="692.40262"
     inkscape:cy="183.44376"
     inkscape:window-width="1920"
     inkscape:window-height="1111"
     inkscape:window-x="-9"
     inkscape:window-y="-9"
     inkscape:window-maximized="1"
     inkscape:current-layer="layer1" />
  <defs
     id="defs110">
    <g
       id="g129">
      <clipPath
         id="clip8282b9xyplot">
        <rect
           x="0"
           y="0"
           width="735"
           height="270"
           id="rect117" />
      </clipPath>
      <clipPath
         id="clip8282b9x">
        <rect
           x="80"
           y="0"
           width="735"
           height="450"
           id="rect120" />
      </clipPath>
      <clipPath
         id="clip8282b9y">
        <rect
           x="0"
           y="100"
           width="1006.93"
           height="270"
           id="rect123" />
      </clipPath>
      <clipPath
         id="clip8282b9xy">
        <rect
           x="80"
           y="100"
           width="735"
           height="270"
           id="rect126" />
      </clipPath>
    </g>
    <g
       id="g131" />
    <g
       id="g133" />
    <clipPath
       id="legend8282b9">
      <rect
         x="0"
         y="0"
         width="165"
         height="67"
         id="rect136" />
    </clipPath>
    <g
       id="g139" />
  </defs>
  <g
     inkscape:label="Layer 1"
     inkscape:groupmode="layer"
     id="layer1"
     transform="translate(78.158581,-99.936819)">
    <g
       id="g1059"
       transform="translate(13.890119,11.561979)">
      <rect
         x="-60.40757"
         y="99.936821"
         width="194.46875"
         height="71.4375"
         stroke-width="0"
         fill="#e5ecf6"
         id="rect144" />
      <g
         id="g148"
         transform="matrix(0.26458333,0,0,0.26458333,-81.574236,73.478486)" />
      <g
         id="g150"
         transform="matrix(0.26458333,0,0,0.26458333,-81.574236,73.478486)" />
      <g
         id="g332"
         transform="matrix(0.26458333,0,0,0.26458333,-81.574236,73.478486)">
        <g
           id="g158">
          <g
             id="g154" />
          <g
             id="g156" />
        </g>
        <g
           id="g164">
          <g
             id="g160" />
          <g
             id="g162" />
        </g>
        <g
           id="g196">
          <g
             id="g182">
            <path
               d="M 0,100 V 370"
               stroke="#ffffff"
               transform="translate(130.74)"
               id="path166" />
            <path
               d="M 0,100 V 370"
               stroke="#ffffff"
               transform="translate(223)"
               id="path168" />
            <path
               d="M 0,100 V 370"
               stroke="#ffffff"
               transform="translate(315.26)"
               id="path170" />
            <path
               d="M 0,100 V 370"
               stroke="#ffffff"
               transform="translate(407.52)"
               id="path172" />
            <path
               d="M 0,100 V 370"
               stroke="#ffffff"
               transform="translate(499.78)"
               id="path174" />
            <path
               d="M 0,100 V 370"
               stroke="#ffffff"
               transform="translate(592.04)"
               id="path176" />
            <path
               d="M 0,100 V 370"
               stroke="#ffffff"
               transform="translate(684.3)"
               id="path178" />
            <path
               d="M 0,100 V 370"
               stroke="#ffffff"
               transform="translate(776.56)"
               id="path180" />
          </g>
          <g
             id="g194">
            <path
               d="M 80,0 H 815"
               stroke="#ffffff"
               transform="translate(0,322.73)"
               id="path184" />
            <path
               d="M 80,0 H 815"
               stroke="#ffffff"
               transform="translate(0,275.45)"
               id="path186" />
            <path
               d="M 80,0 H 815"
               stroke="#ffffff"
               transform="translate(0,228.18)"
               id="path188" />
            <path
               d="M 80,0 H 815"
               stroke="#ffffff"
               transform="translate(0,180.91)"
               id="path190" />
            <path
               d="M 80,0 H 815"
               stroke="#ffffff"
               transform="translate(0,133.63)"
               id="path192" />
          </g>
        </g>
        <g
           id="g200">
          <path
             d="M 80,0 H 815"
             stroke="#ffffff"
             stroke-width="2"
             transform="translate(0,370)"
             id="path198" />
        </g>
        <path
           d=""
           id="path202" />
        <path
           d=""
           id="path204" />
        <g
           id="g206" />
        <g
           id="g208" />
        <g
           id="g210" />
        <g
           id="g212" />
        <g
           clip-path="url(#clip8282b9xyplot)"
           transform="translate(80,100)"
           id="g252">
          <g
             id="g250">
            <g
               stroke-miterlimit="2"
               id="g234">
              <g
                 id="g222">
                <g
                   id="g216">
                  <path
                     d="M 735,270 H 0 v 0 h 31.27 l 0.51,-14.18 h 36.39 l 0.51,-5.79 h 4.61 l 0.52,-1.09 h 10.25 l 0.51,-1.52 h 40.49 l 0.52,-6.71 h 13.83 l 0.52,-2.35 h 23.57 l 0.52,-3.94 h 10.76 l 0.51,-2.44 h 140.44 l 0.51,-20.99 h 13.84 l 0.52,-3.93 h 37.93 l 0.51,-6.21 h 13.32 l 0.52,-2.61 h 51.76 l 0.52,-8.3 h 15.37 l 0.52,-2.61 h 45.61 l 0.52,-7.97 h 14.35 l 0.51,-1.93 h 37.93 l 0.51,-6.29 h 119.94 l 0.51,-19.72 h 36.9 l 0.52,-6.55 h 12.81 l 0.51,-2.1 H 735"
                     stroke-width="0"
                     fill="#636efa"
                     fill-opacity="0.5"
                     id="path214" />
                </g>
                <g
                   id="g220">
                  <path
                     d="m 0,270 h 5.64 l 0.51,-10.01 h 25.12 l 0.51,-14.19 h 25.11 l 0.52,-8.56 h 10.76 l 0.51,-5.79 h 4.61 l 0.52,-1.09 h 10.25 l 0.51,-1.51 h 8.71 l 0.52,-5.79 h 5.12 l 0.52,-0.84 h 9.22 l 0.51,-1.76 h 15.89 l 0.52,-6.72 h 10.76 l 0.51,-4.61 h 2.56 l 0.52,-2.35 h 10.25 l 0.51,-2.1 h 12.81 l 0.52,-3.95 1.02,-2.35 h 0.51 9.23 l 0.51,-2.43 h 12.3 l 0.52,-3.94 h 127.62 l 0.51,-20.99 h 13.84 l 0.52,-3.94 h 11.78 l 0.52,-25.09 h 12.81 l 0.51,-2.18 h 12.31 l 0.51,-6.21 h 13.32 l 0.52,-2.61 h 10.25 l 0.51,-6.29 h 14.86 l 0.52,-2.35 h 25.62 l 0.52,-8.31 h 15.37 l 0.52,-2.6 h 33.82 l 0.52,-12.67 h 11.27 l 0.52,-7.98 h 14.35 l 0.51,-1.93 h 11.28 l 0.51,-6.21 h 11.79 l 0.51,-2.26 h 13.84 l 0.51,-6.3 h 24.09 l 0.51,-6.12 h 68.69 l 0.51,-11.42 h 26.14 l 0.51,-19.72 h 24.6 l 0.52,-8.39 h 11.78 l 0.52,-6.55 h 12.81 l 0.51,-2.1 h 12.82 L 735,13.5 v 129.27 h -13.33 l -0.51,2.1 h -12.81 l -0.52,6.55 h -36.9 l -0.51,19.72 H 550.48 l -0.51,6.29 h -37.93 l -0.51,1.93 h -14.35 l -0.52,7.97 h -45.61 l -0.52,2.61 h -15.37 l -0.52,8.3 h -51.76 l -0.52,2.61 h -13.32 l -0.51,6.21 H 330.6 l -0.52,3.93 h -13.84 l -0.51,20.99 H 175.29 l -0.51,2.44 h -10.76 l -0.52,3.94 h -23.57 l -0.52,2.35 h -13.83 l -0.52,6.71 H 84.57 l -0.51,1.52 H 73.81 l -0.52,1.09 h -4.61 l -0.51,5.79 H 31.78 L 31.27,270 Z"
                     stroke-width="0"
                     fill="#ef553b"
                     fill-opacity="0.5"
                     id="path218" />
                </g>
              </g>
              <g
                 id="g224" />
              <g
                 id="g228">
                <path
                   d="m 0,270 h 31.27 l 0.51,-14.18 h 36.39 l 0.51,-5.79 h 4.61 l 0.52,-1.09 h 10.25 l 0.51,-1.52 h 40.49 l 0.52,-6.71 h 13.83 l 0.52,-2.35 h 23.57 l 0.52,-3.94 h 10.76 l 0.51,-2.44 h 140.44 l 0.51,-20.99 h 13.84 l 0.52,-3.93 h 37.93 l 0.51,-6.21 h 13.32 l 0.52,-2.61 h 51.76 l 0.52,-8.3 h 15.37 l 0.52,-2.61 h 45.61 l 0.52,-7.97 h 14.35 l 0.51,-1.93 h 37.93 l 0.51,-6.29 h 119.94 l 0.51,-19.72 h 36.9 l 0.52,-6.55 h 12.81 l 0.51,-2.1 H 735"
                   stroke="#636efa"
                   stroke-width="2"
                   fill="none"
                   id="path226" />
              </g>
              <g
                 id="g230" />
              <g
                 id="g232" />
            </g>
            <g
               stroke-miterlimit="2"
               id="g248">
              <g
                 id="g236" />
              <g
                 id="g238" />
              <g
                 id="g242">
                <path
                   d="m 0,270 h 5.64 l 0.51,-10.01 h 25.12 l 0.51,-14.19 h 25.11 l 0.52,-8.56 h 10.76 l 0.51,-5.79 h 4.61 l 0.52,-1.09 h 10.25 l 0.51,-1.51 h 8.71 l 0.52,-5.79 h 5.12 l 0.52,-0.84 h 9.22 l 0.51,-1.76 h 15.89 l 0.52,-6.72 h 10.76 l 0.51,-4.61 h 2.56 l 0.52,-2.35 h 10.25 l 0.51,-2.1 h 12.81 l 0.52,-3.95 1.02,-2.35 h 0.51 9.23 l 0.51,-2.43 h 12.3 l 0.52,-3.94 h 127.62 l 0.51,-20.99 h 13.84 l 0.52,-3.94 h 11.78 l 0.52,-25.09 h 12.81 l 0.51,-2.18 h 12.31 l 0.51,-6.21 h 13.32 l 0.52,-2.61 h 10.25 l 0.51,-6.29 h 14.86 l 0.52,-2.35 h 25.62 l 0.52,-8.31 h 15.37 l 0.52,-2.6 h 33.82 l 0.52,-12.67 h 11.27 l 0.52,-7.98 h 14.35 l 0.51,-1.93 h 11.28 l 0.51,-6.21 h 11.79 l 0.51,-2.26 h 13.84 l 0.51,-6.3 h 24.09 l 0.51,-6.12 h 68.69 l 0.51,-11.42 h 26.14 l 0.51,-19.72 h 24.6 l 0.52,-8.39 h 11.78 l 0.52,-6.55 h 12.81 l 0.51,-2.1 h 12.82 L 735,13.5"
                   stroke="#ef553b"
                   stroke-width="2"
                   fill="none"
                   id="path240" />
              </g>
              <g
                 id="g244" />
              <g
                 id="g246" />
            </g>
          </g>
        </g>
        <g
           id="g254" />
        <path
           d=""
           fill="none"
           id="path256" />
        <path
           d=""
           fill="none"
           id="path258" />
        <g
           id="g260" />
        <g
           id="g302">
          <g
             id="g268">
            <text
               fill="#2a3f5f"
               font-family="'Open Sans', verdana, arial, Arial"
               font-size="12px"
               text-anchor="middle"
               transform="translate(130.74)"
               x="0"
               y="383"
               id="text266"><tspan
                 x="0"
                 y="383"
                 dy="0em"
                 id="tspan262">09:00</tspan><tspan
                 x="0"
                 y="383"
                 dy="1.3em"
                 id="tspan264">Nov 30, 2022</tspan></text>
          </g>
          <g
             id="g272">
            <text
               fill="#2a3f5f"
               font-family="'Open Sans', verdana, arial, Arial"
               font-size="12px"
               text-anchor="middle"
               transform="translate(223)"
               x="0"
               y="383"
               id="text270">12:00</text>
          </g>
          <g
             id="g276">
            <text
               fill="#2a3f5f"
               font-family="'Open Sans', verdana, arial, Arial"
               font-size="12px"
               text-anchor="middle"
               transform="translate(315.26)"
               x="0"
               y="383"
               id="text274">15:00</text>
          </g>
          <g
             id="g280">
            <text
               fill="#2a3f5f"
               font-family="'Open Sans', verdana, arial, Arial"
               font-size="12px"
               text-anchor="middle"
               transform="translate(407.52)"
               x="0"
               y="383"
               id="text278">18:00</text>
          </g>
          <g
             id="g284">
            <text
               fill="#2a3f5f"
               font-family="'Open Sans', verdana, arial, Arial"
               font-size="12px"
               text-anchor="middle"
               transform="translate(499.78)"
               x="0"
               y="383"
               id="text282">21:00</text>
          </g>
          <g
             id="g292">
            <text
               fill="#2a3f5f"
               font-family="'Open Sans', verdana, arial, Arial"
               font-size="12px"
               text-anchor="middle"
               transform="translate(592.04)"
               x="0"
               y="383"
               id="text290"><tspan
                 x="0"
                 y="383"
                 dy="0em"
                 id="tspan286">00:00</tspan><tspan
                 x="0"
                 y="383"
                 dy="1.3em"
                 id="tspan288">Dec 1, 2022</tspan></text>
          </g>
          <g
             id="g296">
            <text
               fill="#2a3f5f"
               font-family="'Open Sans', verdana, arial, Arial"
               font-size="12px"
               text-anchor="middle"
               transform="translate(684.3)"
               x="0"
               y="383"
               id="text294">03:00</text>
          </g>
          <g
             id="g300">
            <text
               fill="#2a3f5f"
               font-family="'Open Sans', verdana, arial, Arial"
               font-size="12px"
               text-anchor="middle"
               transform="translate(776.56)"
               x="0"
               y="383"
               id="text298">06:00</text>
          </g>
        </g>
        <g
           id="g328">
          <g
             id="g306">
            <text
               fill="#2a3f5f"
               font-family="'Open Sans', verdana, arial, Arial"
               font-size="12px"
               text-anchor="end"
               transform="translate(0,370)"
               x="79"
               y="4.1999998"
               id="text304">0</text>
          </g>
          <g
             id="g310">
            <text
               fill="#2a3f5f"
               font-family="'Open Sans', verdana, arial, Arial"
               font-size="12px"
               text-anchor="end"
               transform="translate(0,322.73)"
               x="79"
               y="4.1999998"
               id="text308">200</text>
          </g>
          <g
             id="g314">
            <text
               fill="#2a3f5f"
               font-family="'Open Sans', verdana, arial, Arial"
               font-size="12px"
               text-anchor="end"
               transform="translate(0,275.45)"
               x="79"
               y="4.1999998"
               id="text312">400</text>
          </g>
          <g
             id="g318">
            <text
               fill="#2a3f5f"
               font-family="'Open Sans', verdana, arial, Arial"
               font-size="12px"
               text-anchor="end"
               transform="translate(0,228.18)"
               x="79"
               y="4.1999998"
               id="text316">600</text>
          </g>
          <g
             id="g322">
            <text
               fill="#2a3f5f"
               font-family="'Open Sans', verdana, arial, Arial"
               font-size="12px"
               text-anchor="end"
               transform="translate(0,180.91)"
               x="79"
               y="4.1999998"
               id="text320">800</text>
          </g>
          <g
             id="g326">
            <text
               fill="#2a3f5f"
               font-family="'Open Sans', verdana, arial, Arial"
               font-size="12px"
               text-anchor="end"
               transform="translate(0,133.63)"
               x="79"
               y="4.1999998"
               id="text324">1000</text>
          </g>
        </g>
        <g
           id="g330" />
      </g>
      <g
         id="g356"
         transform="matrix(0.26458333,0,0,0.26458333,-81.574236,73.478486)" />
      <g
         id="g358"
         transform="matrix(0.26458333,0,0,0.26458333,-81.574236,73.478486)" />
      <g
         id="g422"
         transform="matrix(0.26458333,0,0,0.26458333,-81.574236,73.478486)">
        <text
           fill="#2a3f5f"
           font-family="'Open Sans', verdana, arial, Arial"
           font-weight="400"
           font-size="14px"
           text-anchor="middle"
           x="447.5"
           y="425.534"
           id="text420">time (UTC)</text>
      </g>
      <g
         id="g426"
         transform="matrix(0.26458333,0,0,0.26458333,-81.574236,73.478486)">
        <text
           fill="#2a3f5f"
           font-family="'Open Sans', verdana, arial, Arial"
           font-weight="400"
           font-size="14px"
           text-anchor="middle"
           transform="rotate(-90,23.683,235)"
           x="23.683399"
           y="235"
           id="text424">Cumulative Costs ($)</text>
      </g>
    </g>
  </g>
</svg>
